<svg height="39px" viewBox="0 0 58 58" width="50px" xmlns="http://www.w3.org/2000/svg"><g id="038---Folded-Shirt" fill="none"><path id="Shape" d="m58 20.88v33.12c0 2.209139-1.790861 4-4 4h-50c-2.209139 0-4-1.790861-4-4v-33.12c-.00014954-3.630356 1.96721837-6.975647 5.14-8.74l7.1-3.94h33.52l7.1 3.94c3.1727816 1.764353 5.1401495 5.109644 5.14 8.74z" fill="#d1d4d1"/><path id="Shape" d="m58 20.88v31.12c0 2.209139-1.790861 4-4 4h-50c-2.209139 0-4-1.790861-4-4v-31.12c-.00014954-3.630356 1.96721837-6.975647 5.14-8.74l7.1-3.94h33.52l7.1 3.94c3.1727816 1.764353 5.1401495 5.109644 5.14 8.74z" fill="#ecf0f1"/><path id="Shape" d="m16.77 8.2-.27 4.24c-3.36 2.51-1.41 1.27-9 5.66-.87823279.5125061-2.00122874.2844648-2.61-.53l-2.42-3.27c1.53-1.75 2.42-2 9.77-6.1z" fill="#35495e"/><path id="Shape" d="m55.53 14.3-2.46 3.27c-.6087713.8144648-1.7317672 1.0425061-2.61.53-7.59-4.41-5.37-3.16-9.89-5.66l-.36-4.24h5.55c7.24 4.03 8.24 4.35 9.77 6.1z" fill="#35495e"/><path id="Shape" d="m29 13c-2.27 1.14-3 3.57-4 5.45l-8.67-2.45c-1.6031428-1.5212741-3.0534019-3.1959381-4.33-5 0-4 1.51-7.51 3-9 1.2923588 1.72385267 2.7492079 3.31801391 4.35 4.76 2.83678 2.61573753 6.1006377 4.7262528 9.65 6.24z" fill="#d1d4d1"/><path id="Shape" d="m43 2c-1.2923588 1.72385267-2.7492079 3.31801391-4.35 4.76-6.3948152-.99559009-12.9051848-.99559009-19.3 0-1.6007921-1.44198609-3.0576412-3.03614733-4.35-4.76 5.27-2.63 22.75-2.63 28 0z" fill="#bdc3c7"/><path id="Shape" d="m38.65 6.76c-2.83678 2.61573753-6.1006377 4.7262528-9.65 6.24-3.5493623-1.5137472-6.81322-3.62426247-9.65-6.24 6.3948152-.99559009 12.9051848-.99559009 19.3 0z" fill="#7f8c8d"/><path id="Shape" d="m46 11c-1.2800621 1.8013441-2.7300419 3.4756858-4.33 5l-8.67 2.45c-1-1.88-1.73-4.31-4-5.45 3.5493623-1.5137472 6.81322-3.62426247 9.65-6.24 1.6007921-1.44198609 3.0576412-3.03614733 4.35-4.76 1.47 1.47 3 4.92 3 9z" fill="#d1d4d1"/><path id="Shape" d="m33 19 6-3.73c.6404848-.3722377 1.4342611-.3599598 2.062927.0319086.6286659.3918683.9892343 1.0991321.937073 1.8380914v7.72c.0521613.7389593-.3084071 1.4462231-.937073 1.8380914-.6286659.3918684-1.4224422.4041463-2.062927.0319086l-6-3.73h-8l-6 3.73c-.6404848.3722377-1.4342611.3599598-2.062927-.0319086-.6286659-.3918683-.9892343-1.0991321-.937073-1.8380914v-7.72c-.0521613-.7389593.3084071-1.4462231.937073-1.8380914.6286659-.3918684 1.4224422-.4041463 2.062927-.0319086l6 3.73z" fill="#c03a2b"/><path id="Shape" d="m30 25v33h-2v-33c0-.5522847.4477153-1 1-1s1 .4477153 1 1z" fill="#bdc3c7"/><rect id="Rectangle-path" fill="#bdc3c7" height="4" rx="1" width="14" x="38" y="32"/><rect id="Rectangle-path" fill="#e64c3c" height="8" rx="2" width="8" x="25" y="17"/></g></svg>